#!OML:ASF H:\Dans Jumps\Project 1\Capture day 1\Session 1\subject.ASF
:FULLY-SPECIFIED
:DEGREES
102
root 0.487947 17.5205 -14.2775 6.58915 -0.562803 -1.90948
lowerback -1.94978 -0.693815 0.585132
upperback 5.11976 -1.0536 1.65797
thorax 6.43167 -0.539807 1.31918
lowerneck -11.0332 0.518179 -2.30072
upperneck 36.6575 0.993984 0.984296
head 14.4135 0.230463 0.961387
rclavicle -4.42296e-015 1.98785e-015
rhumerus -18.3253 -17.6481 -82.5317
rradius 25.6927
rwrist 32.4012
rhand -18.3248 -26.857
rfingers 7.12502
rthumb 7.95682 -56.6873
lclavicle -4.42296e-015 1.98785e-015
lhumerus -16.0597 1.31297 88.0657
lradius 17.7465
lwrist -1.76444
lhand -23.6317 -3.54909
lfingers 7.12502
lthumb 2.83302 26.4118
rfemur -13.8552 -2.38932 19.0513
rtibia 21.2205
rfoot -13.086 -2.05314
rtoes 4.83175
lfemur -13.7735 8.09122 -17.4086
ltibia 19.6289
lfoot -10.4787 5.05327
ltoes -13.0736
103
root 0.488968 17.5207 -14.2769 6.58673 -0.562197 -1.92033
lowerback -1.9474 -0.698589 0.588608
upperback 5.11183 -1.05985 1.65559
thorax 6.42186 -0.542632 1.31431
lowerneck -11.0308 0.516355 -2.3029
upperneck 36.6493 0.996561 0.970848
head 14.4092 0.229476 0.956505
rclavicle -8.24956e-015 -2.5842e-015
rhumerus -18.3157 -17.6057 -82.5378
rradius 25.704
rwrist 32.3812
rhand -18.3382 -26.8542
rfingers 7.12502
rthumb 7.94389 -56.6849
lclavicle -8.24956e-015 -2.5842e-015
lhumerus -16.0681 1.29448 88.0753
lradius 17.7597
lwrist -1.74655
lhand -23.6466 -3.53959
lfingers 7.12502
lthumb 2.81861 26.4215
rfemur -13.8401 -2.39395 19.0597
rtibia 21.2001
rfoot -13.0805 -2.04553
rtoes 4.87288
lfemur -13.7712 8.0886 -17.3997
ltibia 19.6332
lfoot -10.485 5.03489
ltoes -13.0255
104
root 0.48999 17.5209 -14.2765 6.58512 -0.560979 -1.92923
lowerback -1.94486 -0.702489 0.590851
upperback 5.10303 -1.06482 1.65299
thorax 6.41105 -0.544883 1.31
lowerneck -11.0256 0.514433 -2.30192
upperneck 36.6387 0.999654 0.953128
head 14.4032 0.228633 0.949342
rclavicle 7.30534e-015 -4.57205e-015
rhumerus -18.3082 -17.5635 -82.5437
rradius 25.7166
rwrist 32.3602
rhand -18.3423 -26.8581
rfingers 7.12502
rthumb 7.93998 -56.689
lclavicle 7.30534e-015 -4.57205e-015
lhumerus -16.0767 1.2691 88.0861
lradius 17.7766
lwrist -1.71931
lhand -23.6614 -3.53829
lfingers 7.12502
lthumb 2.80439 26.423
rfemur -13.8264 -2.40154 19.0657
rtibia 21.1805
rfoot -13.0761 -2.0351
rtoes 4.91658
lfemur -13.7699 8.08309 -17.3932
ltibia 19.6373
lfoot -10.4903 5.02101
ltoes -12.9852
105
root 0.490959 17.5211 -14.2761 6.5842 -0.558756 -1.93643
lowerback -1.94108 -0.7061 0.591366
upperback 5.09256 -1.06924 1.64993
thorax 6.39775 -0.546929 1.30623
lowerneck -11.0219 0.513315 -2.29682
upperneck 36.6321 1.00394 0.93263
head 14.3994 0.228461 0.940548
rclavicle 4.17448e-015 -1.19271e-015
rhumerus -18.3036 -17.5218 -82.5506
rradius 25.7296
rwrist 32.3387
rhand -18.3423 -26.8647
rfingers 7.12502
rthumb 7.93993 -56.6956
lclavicle 4.17448e-015 -1.19271e-015
lhumerus -16.0848 1.23735 88.0967
lradius 17.7947
lwrist -1.68226
lhand -23.6666 -3.53082
lfingers 7.12502
lthumb 2.79935 26.4306
rfemur -13.8143 -2.41201 19.0703
rtibia 21.1625
rfoot -13.0716 -2.02425
rtoes 4.9465
lfemur -13.7699 8.0763 -17.3885
ltibia 19.6422
lfoot -10.495 5.00926
ltoes -12.9476
106
root 0.491848 17.5212 -14.2758 6.58504 -0.557873 -1.94301
lowerback -1.9394 -0.70823 0.591282
upperback 5.08273 -1.07168 1.64651
thorax 6.38629 -0.548013 1.30255
lowerneck -11.0198 0.512602 -2.28967
upperneck 36.6239 1.00861 0.911473
head 14.3953 0.22868 0.931179
rclavicle 6.11263e-015 -9.34288e-015
rhumerus -18.2991 -17.4804 -82.5589
rradius 25.7433
rwrist 32.3198
rhand -18.3427 -26.8681
rfingers 7.12502
rthumb 7.9396 -56.699
lclavicle 6.11263e-015 -9.34288e-015
lhumerus -16.0884 1.20195 88.107
lradius 17.8147
lwrist -1.63812
lhand -23.6604 -3.52065
lfingers 7.12502
lthumb 2.80534 26.4406
rfemur -13.8063 -2.42128 19.0744
rtibia 21.1477
rfoot -13.0671 -2.01366
rtoes 4.96276
lfemur -13.7726 8.06867 -17.3845
ltibia 19.6481
lfoot -10.4972 5.00242
ltoes -12.9184
107
root 0.492629 17.5212 -14.2757 6.58616 -0.557607 -1.95109
lowerback -1.93628 -0.709417 0.592071
upperback 5.07292 -1.07291 1.64375
thorax 6.37402 -0.548479 1.29919
lowerneck -11.0202 0.513074 -2.28131
upperneck 36.6156 1.0145 0.89118
head 14.3917 0.229717 0.922157
rclavicle 3.97569e-016 -9.54166e-015
rhumerus -18.2944 -17.4371 -82.5687
rradius 25.7583
rwrist 32.2955
rhand -18.3365 -26.8804
rfingers 7.12502
rthumb 7.94559 -56.7111
lclavicle 3.97569e-016 -9.54166e-015
lhumerus -16.0883 1.16602 88.1171
lradius 17.8357
lwrist -1.59012
lhand -23.6425 -3.49956
lfingers 7.12502
lthumb 2.82257 26.4615
rfemur -13.8008 -2.4262 19.0803
rtibia 21.136
rfoot -13.0619 -2.0078
rtoes 4.96248
lfemur -13.7772 8.05993 -17.3785
ltibia 19.6565
lfoot -10.4981 4.99867
ltoes -12.8936
108
root 0.493287 17.5211 -14.2756 6.58722 -0.558583 -1.95745
lowerback -1.93263 -0.708837 0.59033
upperback 5.06334 -1.07164 1.64108
thorax 6.36168 -0.54784 1.29751
lowerneck -11.0183 0.513664 -2.27561
upperneck 36.6045 1.01967 0.875259
head 14.3861 0.230718 0.915248
rclavicle 9.93923e-016 -5.96354e-016
rhumerus -18.2921 -17.3935 -82.5776
rradius 25.776
rwrist 32.2664
rhand -18.3213 -26.8966
rfingers 7.12502
rthumb 7.96026 -56.7267
lclavicle 9.93923e-016 -5.96354e-016
lhumerus -16.0862 1.12821 88.1282
lradius 17.8575
lwrist -1.54587
lhand -23.6264 -3.48682
lfingers 7.12502
lthumb 2.83821 26.474
rfemur -13.7977 -2.42687 19.0846
rtibia 21.1274
rfoot -13.057 -2.00486
rtoes 4.95901
lfemur -13.7842 8.05253 -17.3742
ltibia 19.6684
lfoot -10.4997 4.99629
ltoes -12.8721
109
root 0.493863 17.521 -14.2758 6.58816 -0.559761 -1.96492
lowerback -1.9293 -0.707081 0.590138
upperback 5.05587 -1.06893 1.63857
thorax 6.35171 -0.546423 1.29525
lowerneck -11.0155 0.51413 -2.27405
upperneck 36.5863 1.02339 0.865735
head 14.377 0.231488 0.911404
rclavicle 4.96962e-016 -6.55989e-015
rhumerus -18.2896 -17.3493 -82.5878
rradius 25.7978
rwrist 32.2326
rhand -18.3021 -26.9138
rfingers 7.12502
rthumb 7.97874 -56.7432
lclavicle 4.96962e-016 -6.55989e-015
lhumerus -16.0789 1.09013 88.1389
lradius 17.8774
lwrist -1.51284
lhand -23.6187 -3.49472
lfingers 7.12502
lthumb 2.84563 26.466
rfemur -13.7966 -2.42605 19.0904
rtibia 21.1216
rfoot -13.0531 -2.00362
rtoes 4.95192
lfemur -13.7936 8.04664 -17.3683
ltibia 19.6836
lfoot -10.5025 4.99335
ltoes -12.8527
110
root 0.494314 17.5208 -14.2762 6.58851 -0.559817 -1.97224
lowerback -1.9244 -0.704851 0.588982
upperback 5.04868 -1.06557 1.63692
thorax 6.34116 -0.544752 1.29449
lowerneck -11.0102 0.5143 -2.27499
upperneck 36.5636 1.02612 0.859411
head 14.3652 0.231983 0.909103
rclavicle 9.59136e-015 -6.55989e-015
rhumerus -18.2888 -17.3036 -82.5975
rradius 25.8216
rwrist 32.1956
rhand -18.2802 -26.9298
rfingers 7.12502
rthumb 7.99991 -56.7584
lclavicle 9.59136e-015 -6.55989e-015
lhumerus -16.0721 1.04719 88.1504
lradius 17.9003
lwrist -1.48125
lhand -23.6137 -3.51846
lfingers 7.12502
lthumb 2.85047 26.4422
rfemur -13.7977 -2.42313 19.0968
rtibia 21.1187
rfoot -13.0493 -2.00677
rtoes 4.94031
lfemur -13.8049 8.04255 -17.3623
ltibia 19.7013
lfoot -10.5069 4.98846
ltoes -12.8423
111
root 0.494736 17.5205 -14.2767 6.58702 -0.557895 -1.97984
lowerback -1.91765 -0.703056 0.587713
upperback 5.04346 -1.06287 1.63662
thorax 6.33168 -0.543457 1.29515
lowerneck -11.0089 0.513517 -2.28009
upperneck 36.5394 1.02725 0.856955
head 14.3535 0.231756 0.908906
rclavicle -2.23633e-015 -3.57812e-015
rhumerus -18.2861 -17.2588 -82.6072
rradius 25.8452
rwrist 32.1611
rhand -18.263 -26.9403
rfingers 7.12502
rthumb 8.01655 -56.7683
lclavicle -2.23633e-015 -3.57812e-015
lhumerus -16.0613 0.997594 88.1638
lradius 17.9219
lwrist -1.45242
lhand -23.6203 -3.56899
lfingers 7.12502
lthumb 2.84402 26.3918
rfemur -13.7979 -2.42284 19.1039
rtibia 21.1183
rfoot -13.0466 -2.00983
rtoes 4.92868
lfemur -13.8153 8.03756 -17.3554
ltibia 19.7203
lfoot -10.5124 4.98301
ltoes -12.832
112
root 0.495136 17.5202 -14.2774 6.58393 -0.556359 -1.98658
lowerback -1.90845 -0.700648 0.586151
upperback 5.03945 -1.05933 1.6367
thorax 6.32208 -0.54178 1.29648
lowerneck -11.0056 0.512433 -2.28745
upperneck 36.5091 1.02782 0.856236
head 14.3386 0.231303 0.909659
rclavicle -7.65321e-015 -2.98177e-015
rhumerus -18.2815 -17.2185 -82.6164
rradius 25.8643
rwrist 32.133
rhand -18.2543 -26.9427
rfingers 7.12502
rthumb 8.02487 -56.7703
lclavicle -7.65321e-015 -2.98177e-015
lhumerus -16.0479 0.93376 88.1795
lradius 17.9447
lwrist -1.41335
lhand -23.6335 -3.63589
lfingers 7.12502
lthumb 2.83128 26.3251
rfemur -13.7986 -2.42447 19.1102
rtibia 21.1204
rfoot -13.0448 -2.01031
rtoes 4.91696
lfemur -13.8244 8.03327 -17.3496
ltibia 19.7392
lfoot -10.5185 4.97845
ltoes -12.8293
113
root 0.495538 17.5198 -14.2783 6.57769 -0.554813 -1.99228
lowerback -1.89457 -0.698083 0.583588
upperback 5.03533 -1.05547 1.63718
thorax 6.30966 -0.540006 1.29884
lowerneck -11.0007 0.511346 -2.29398
upperneck 36.4784 1.02828 0.855065
head 14.3231 0.230869 0.910048
rclavicle 1.39149e-015 -1.98785e-015
rhumerus -18.2783 -17.1818 -82.6245
rradius 25.8798
rwrist 32.1108
rhand -18.2521 -26.9381
rfingers 7.12502
rthumb 8.027 -56.7657
lclavicle 1.39149e-015 -1.98785e-015
lhumerus -16.0337 0.856967 88.1972
lradius 17.9687
lwrist -1.35921
lhand -23.6383 -3.67906
lfingers 7.12502
lthumb 2.82663 26.282
rfemur -13.7969 -2.42872 19.1154
rtibia 21.1239
rfoot -13.0436 -2.0085
rtoes 4.90273
lfemur -13.8299 8.026 -17.3441
ltibia 19.7582
lfoot -10.5257 4.97632
ltoes -12.8181
114
root 0.495923 17.5194 -14.2793 6.57047 -0.553239 -1.99757
lowerback -1.88058 -0.696148 0.580239
upperback 5.03359 -1.05251 1.63858
thorax 6.29978 -0.538748 1.30254
lowerneck -10.9973 0.510987 -2.30143
upperneck 36.4445 1.0301 0.853801
head 14.3064 0.230919 0.910745
rclavicle 2.18663e-015 -9.34288e-015
rhumerus -18.2715 -17.1453 -82.6336
rradius 25.8912
rwrist 32.0977
rhand -18.2603 -26.9238
rfingers 7.12502
rthumb 8.01909 -56.7517
lclavicle 2.18663e-015 -9.34288e-015
lhumerus -16.0156 0.773781 88.2161
lradius 17.9964
lwrist -1.29399
lhand -23.6414 -3.7018
lfingers 7.12502
lthumb 2.8237 26.2593
rfemur -13.7954 -2.43536 19.1202
rtibia 21.1291
rfoot -13.0438 -2.00376
rtoes 4.88919
lfemur -13.8346 8.01911 -17.339
ltibia 19.7769
lfoot -10.5331 4.97407
ltoes -12.7987
